<svg width="64" height="64" viewBox="0 0 64 64" fill="none" xmlns="http://www.w3.org/2000/svg">
<path fill-rule="evenodd" clip-rule="evenodd" d="M52.9718 0.878684C51.8003 -0.292889 49.9008 -0.292888 48.7292 0.878685L31.7312 17.8767L14.7332 0.878685C13.5616 -0.292888 11.6621 -0.292887 10.4906 0.878685L0.878624 10.4906C-0.292949 11.6622 -0.292947 13.5617 0.878626 14.7333L17.8766 31.7313L0.878623 48.7293C-0.292949 49.9008 -0.292948 51.8003 0.878624 52.9719L10.4906 62.5838C11.6621 63.7554 13.5616 63.7554 14.7332 62.5838L31.7312 45.5858L48.7292 62.5838C49.9008 63.7554 51.8003 63.7554 52.9718 62.5838L62.5838 52.9719C63.7554 51.8003 63.7553 49.9008 62.5838 48.7293L45.5858 31.7313L62.5838 14.7333C63.7554 13.5617 63.7553 11.6622 62.5838 10.4906L52.9718 0.878684Z" fill="#31C3BD"/>
</svg>
