<svg width="31" height="31" viewBox="0 0 31 31" fill="none" xmlns="http://www.w3.org/2000/svg">
<path fill-rule="evenodd" clip-rule="evenodd" d="M26.9254 0.878679C25.7538 -0.292894 23.8543 -0.292892 22.6827 0.878681L15.2444 8.31702L7.80605 0.87868C6.63447 -0.292893 4.73498 -0.292892 3.5634 0.878681L0.878756 3.56333C-0.292817 4.7349 -0.292815 6.6344 0.878758 7.80597L8.31709 15.2443L0.878756 22.6826C-0.292817 23.8542 -0.292815 25.7537 0.878757 26.9253L3.56341 29.6099C4.73498 30.7815 6.63447 30.7815 7.80605 29.6099L15.2444 22.1716L22.6827 29.6099C23.8543 30.7815 25.7538 30.7815 26.9254 29.6099L29.61 26.9253C30.7816 25.7537 30.7816 23.8542 29.61 22.6826L22.1717 15.2443L29.61 7.80597C30.7816 6.6344 30.7816 4.7349 29.61 3.56333L26.9254 0.878679Z" fill="#31C3BD"/>
</svg>
